<svg width="296" height="157" viewBox="0 0 296 157" fill="none" xmlns="http://www.w3.org/2000/svg">
<rect width="296" height="157" fill="#A0AEC0"/>
<path fill-rule="evenodd" clip-rule="evenodd" d="M170.556 51.6667H125.444C125.238 51.6667 125.04 51.7486 124.894 51.8945C124.749 52.0403 124.667 52.2382 124.667 52.4444V97.5556C124.667 97.9849 125.015 98.3333 125.444 98.3333H126.036L156.596 67.7729C157.102 67.2673 157.702 66.8662 158.362 66.5925C159.023 66.3189 159.731 66.1781 160.446 66.1781C161.161 66.1781 161.869 66.3189 162.53 66.5925C163.19 66.8662 163.79 67.2673 164.296 67.7729L171.333 74.8102V52.4444C171.333 52.2382 171.251 52.0403 171.106 51.8945C170.96 51.7486 170.762 51.6667 170.556 51.6667V51.6667ZM171.333 81.4089L160.995 71.0707C160.923 70.9982 160.837 70.9408 160.743 70.9016C160.648 70.8623 160.547 70.8422 160.444 70.8422C160.342 70.8422 160.241 70.8623 160.146 70.9016C160.052 70.9408 159.966 70.9982 159.894 71.0707L132.634 98.3333H170.556C170.762 98.3333 170.96 98.2514 171.106 98.1055C171.251 97.9597 171.333 97.7618 171.333 97.5556V81.4089V81.4089ZM125.444 47C124 47 122.616 47.5736 121.595 48.5946C120.574 49.6157 120 51.0005 120 52.4444V97.5556C120 100.561 122.439 103 125.444 103H170.556C172 103 173.384 102.426 174.405 101.405C175.426 100.384 176 98.9995 176 97.5556V52.4444C176 51.0005 175.426 49.6157 174.405 48.5946C173.384 47.5736 172 47 170.556 47H125.444ZM137.111 67.2222C137.936 67.2222 138.728 66.8944 139.311 66.311C139.894 65.7276 140.222 64.9362 140.222 64.1111C140.222 63.286 139.894 62.4947 139.311 61.9112C138.728 61.3278 137.936 61 137.111 61C136.286 61 135.495 61.3278 134.911 61.9112C134.328 62.4947 134 63.286 134 64.1111C134 64.9362 134.328 65.7276 134.911 66.311C135.495 66.8944 136.286 67.2222 137.111 67.2222V67.2222ZM137.111 71.8889C139.174 71.8889 141.152 71.0694 142.611 69.6108C144.069 68.1522 144.889 66.1739 144.889 64.1111C144.889 62.0483 144.069 60.07 142.611 58.6114C141.152 57.1528 139.174 56.3333 137.111 56.3333C135.048 56.3333 133.07 57.1528 131.611 58.6114C130.153 60.07 129.333 62.0483 129.333 64.1111C129.333 66.1739 130.153 68.1522 131.611 69.6108C133.07 71.0694 135.048 71.8889 137.111 71.8889V71.8889Z" fill="#718096"/>
</svg>
