<svg width="150" height="150" fill="none" xmlns="http://www.w3.org/2000/svg"><path fill="#E2E8F0" d="M0 0h150v150H0z"/><path fill-rule="evenodd" clip-rule="evenodd" d="M97.556 51.667H52.444a.777.777 0 0 0-.777.777v45.112c0 .429.348.777.777.777h.592l30.56-30.56a5.446 5.446 0 0 1 7.7 0l7.037 7.037V52.444a.777.777 0 0 0-.777-.777Zm.777 29.742L87.995 71.07a.776.776 0 0 0-1.101 0l-27.26 27.262h37.922a.777.777 0 0 0 .777-.777V81.409ZM52.444 47A5.445 5.445 0 0 0 47 52.444v45.112A5.446 5.446 0 0 0 52.444 103h45.112A5.444 5.444 0 0 0 103 97.556V52.444A5.445 5.445 0 0 0 97.556 47H52.444Zm11.667 20.222a3.111 3.111 0 1 0 0-6.222 3.111 3.111 0 0 0 0 6.222Zm0 4.667a7.778 7.778 0 1 0 0-15.556 7.778 7.778 0 0 0 0 15.556Z" fill="#A0AEC0"/></svg>