<svg xmlns="http://www.w3.org/2000/svg" viewBox="0 0 48 46" fill="none">
  <path d="M38.9783 45.8434H0V35.7807L4.62651 31.1542V8.83132H7.51807V5.93975H10.4096V3.04818H13.3012V0.156616H43.3735V26.759H48V36.8217L38.9783 45.8434ZM1.15663 44.6867H38.1687V36.5904H1.15663V44.6867ZM39.3253 36.2434V43.8771L46.8434 36.359V28.7253L39.3253 36.2434ZM37.5904 35.4337H38.5157L39.3253 34.6241V4.20481H11.5663V5.93975H37.5904V35.4337ZM34.6988 35.4337H36.4337V7.09638H8.6747V8.83132H34.6988V35.4337ZM5.78313 35.4337H33.5422V9.98794H5.78313V35.4337ZM1.96626 35.4337H4.62651V32.7735L1.96626 35.4337ZM14.4578 3.04818H40.4819V33.4675L42.2169 31.7325V1.31324H14.4578V3.04818ZM43.3735 27.9157V30.5759L46.0337 27.9157H43.3735ZM31.2289 30.8072H8.09639V29.6506H31.2289V30.8072ZM31.2289 27.9157H8.09639V26.759H31.2289V27.9157ZM31.2289 25.0241H8.09639V23.8675H31.2289V25.0241ZM16.7711 20.9759H8.09639V12.3012H16.7711V20.9759ZM9.25301 19.8193H15.6145V13.4578H9.25301V19.8193ZM30.6506 16.3494H19.0843V15.1928H30.6506V16.3494ZM30.6506 13.4578H19.0843V12.3012H30.6506V13.4578Z" fill="#098649"/>
</svg>