<svg xmlns="http://www.w3.org/2000/svg" viewBox="0 0 48 46" fill="none">
  <path d="M16.2668 32.1761C16.066 32.1761 15.8735 32.2559 15.7315 32.3979C15.5895 32.5399 15.5098 32.7324 15.5098 32.9332V44.9238C15.5098 45.1246 15.5895 45.3171 15.7315 45.4591C15.8735 45.6011 16.066 45.6808 16.2668 45.6808C16.4676 45.6808 16.6601 45.6011 16.8021 45.4591C16.9441 45.3171 17.0238 45.1246 17.0238 44.9238V32.9332C17.0236 32.7325 16.9437 32.5401 16.8018 32.3982C16.6599 32.2563 16.4675 32.1764 16.2668 32.1761Z" fill="#5A7BB6"/>
  <path d="M31.7346 32.1761C31.5339 32.1764 31.3415 32.2563 31.1996 32.3982C31.0577 32.5401 30.9778 32.7325 30.9775 32.9332V44.9238C30.9775 45.1246 31.0573 45.3171 31.1993 45.4591C31.3412 45.6011 31.5338 45.6808 31.7346 45.6808C31.9353 45.6808 32.1279 45.6011 32.2699 45.4591C32.4118 45.3171 32.4916 45.1246 32.4916 44.9238V32.9332C32.4916 32.7324 32.4118 32.5399 32.2699 32.3979C32.1279 32.2559 31.9353 32.1761 31.7346 32.1761Z" fill="#5A7BB6"/>
  <path d="M42.7312 9.442C43.5571 8.77549 44.1559 7.86929 44.4452 6.84824C44.7346 5.82719 44.7001 4.74154 44.3467 3.74088C43.9933 2.74021 43.3382 1.87376 42.4718 1.26091C41.6054 0.648065 40.5703 0.31897 39.509 0.31897C38.4478 0.31897 37.4126 0.648065 36.5462 1.26091C35.6798 1.87376 35.0248 2.74021 34.6714 3.74088C34.3179 4.74154 34.2835 5.82719 34.5728 6.84824C34.8621 7.86929 35.461 8.77549 36.2868 9.442C36.0287 9.52532 35.7753 9.62268 35.5277 9.73364C35.0485 9.20591 34.4645 8.78402 33.8129 8.49493C33.1613 8.20584 32.4566 8.05593 31.7437 8.05478C31.0309 8.05363 30.3257 8.20127 29.6732 8.48826C29.0207 8.77525 28.4353 9.19527 27.9544 9.72145C27.7158 9.61576 27.4719 9.52248 27.2237 9.442C28.049 8.7754 28.6473 7.86931 28.9362 6.84855C29.2251 5.82779 29.1904 4.74256 28.8369 3.74234C28.4834 2.74211 27.8284 1.8761 26.9623 1.26356C26.0961 0.65103 25.0614 0.322112 24.0005 0.322112C22.9397 0.322112 21.9049 0.65103 21.0387 1.26356C20.1726 1.8761 19.5177 2.74211 19.1641 3.74234C18.8106 4.74256 18.7759 5.82779 19.0648 6.84855C19.3537 7.86931 19.952 8.7754 20.7773 9.442C20.5291 9.52248 20.2852 9.61576 20.0467 9.72145C19.5659 9.19529 18.9805 8.77529 18.3281 8.48831C17.6757 8.20134 16.9705 8.0537 16.2578 8.05485C15.545 8.05599 14.8404 8.2059 14.1889 8.49498C13.5374 8.78406 12.9534 9.20594 12.4743 9.73364C12.2267 9.62284 11.9733 9.52549 11.7152 9.442C12.5409 8.77542 13.1396 7.8692 13.4288 6.84818C13.7181 5.82715 13.6835 4.74157 13.3301 3.74098C12.9766 2.74039 12.3215 1.87402 11.4552 1.26123C10.5888 0.64844 9.55369 0.31938 8.4925 0.31938C7.4313 0.31938 6.39622 0.64844 5.52984 1.26123C4.66345 1.87402 4.0084 2.74039 3.65493 3.74098C3.30145 4.74157 3.26694 5.82715 3.55615 6.84818C3.84536 7.8692 4.44406 8.77542 5.26977 9.442C3.7395 9.94016 2.40585 10.9093 1.45941 12.2109C0.512964 13.5124 0.00216306 15.0799 0 16.6892V23.85C0.00158959 24.2022 0.0727662 24.5506 0.209438 24.8751C0.34611 25.1997 0.545583 25.494 0.796389 25.7413C1.0472 25.9885 1.34439 26.1837 1.67089 26.3157C1.99739 26.4477 2.34675 26.5138 2.6989 26.5103C3.09501 26.5119 3.48639 26.4244 3.84411 26.2542V37.1982C3.85129 37.3943 3.93425 37.58 4.07553 37.7162C4.21681 37.8524 4.4054 37.9285 4.60165 37.9285C4.79789 37.9285 4.98649 37.8524 5.12777 37.7162C5.26905 37.58 5.35201 37.3943 5.35919 37.1982V16.6912C5.35201 16.4951 5.26905 16.3094 5.12777 16.1732C4.98649 16.037 4.79789 15.9609 4.60165 15.9609C4.4054 15.9609 4.21681 16.037 4.07553 16.1732C3.93425 16.3094 3.85129 16.4951 3.84411 16.6912V23.85C3.83516 24.1531 3.70849 24.4407 3.49098 24.6519C3.27347 24.863 2.98224 24.9811 2.67909 24.9811C2.37593 24.9811 2.0847 24.863 1.86719 24.6519C1.64968 24.4407 1.52302 24.1531 1.51407 23.85V16.6892C1.51595 15.0704 2.15987 13.5183 3.30457 12.3736C4.44927 11.2289 6.00128 10.585 7.62013 10.5831H9.36791C10.1404 10.5834 10.9058 10.73 11.6238 11.015C11.1378 12.0525 11.0139 13.2229 11.2718 14.3391C11.5297 15.4553 12.1546 16.4528 13.0464 17.1719C11.5162 17.6702 10.1826 18.6393 9.23622 19.9409C8.28979 21.2424 7.77893 22.8098 7.77662 24.4191V31.5799C7.7782 31.9321 7.84938 32.2804 7.98605 32.605C8.12273 32.9296 8.3222 33.2239 8.573 33.4711C8.82381 33.7184 9.12101 33.9136 9.4475 34.0456C9.774 34.1775 10.1234 34.2437 10.4755 34.2402C10.8715 34.2392 11.2622 34.1493 11.6187 33.977V44.921C11.6259 45.1171 11.7088 45.3028 11.8501 45.439C11.9914 45.5752 12.18 45.6513 12.3762 45.6513C12.5725 45.6513 12.7611 45.5752 12.9023 45.439C13.0436 45.3028 13.1266 45.1171 13.1338 44.921V24.4252C13.1266 24.2291 13.0436 24.0434 12.9023 23.9072C12.7611 23.771 12.5725 23.6949 12.3762 23.6949C12.18 23.6949 11.9914 23.771 11.8501 23.9072C11.7088 24.0434 11.6259 24.2291 11.6187 24.4252V31.584C11.6187 31.8928 11.496 32.189 11.2776 32.4074C11.0592 32.6258 10.763 32.7485 10.4542 32.7485C10.1453 32.7485 9.84913 32.6258 9.63074 32.4074C9.41236 32.189 9.28967 31.8928 9.28967 31.584V24.4191C9.29155 22.8005 9.93536 21.2487 11.0799 20.1042C12.2244 18.9597 13.7761 18.3159 15.3947 18.314H17.1374C18.7562 18.3156 20.3082 18.9593 21.4529 20.1039C22.5976 21.2484 23.2416 22.8003 23.2435 24.4191V31.5799C23.2345 31.8829 23.1079 32.1705 22.8904 32.3817C22.6728 32.5929 22.3816 32.711 22.0785 32.711C21.7753 32.711 21.4841 32.5929 21.2666 32.3817C21.0491 32.1705 20.9224 31.8829 20.9134 31.5799V24.4252C20.9134 24.2244 20.8337 24.0318 20.6917 23.8899C20.5497 23.7479 20.3572 23.6681 20.1564 23.6681C19.9556 23.6681 19.7631 23.7479 19.6211 23.8899C19.4791 24.0318 19.3994 24.2244 19.3994 24.4252V44.924C19.3994 45.1248 19.4791 45.3174 19.6211 45.4593C19.7631 45.6013 19.9556 45.6811 20.1564 45.6811C20.3572 45.6811 20.5497 45.6013 20.6917 45.4593C20.8337 45.3174 20.9134 45.1248 20.9134 44.924V33.977C21.2831 34.1533 21.6877 34.2443 22.0973 34.2432C22.4526 34.2426 22.8041 34.1706 23.1311 34.0315C23.458 33.8924 23.7537 33.689 24.0005 33.4334C24.2536 33.6902 24.5555 33.8939 24.8885 34.0324C25.2214 34.171 25.5787 34.2416 25.9393 34.2402C26.337 34.24 26.7295 34.15 27.0876 33.977V44.921C27.0876 45.0204 27.1072 45.1188 27.1452 45.2107C27.1832 45.3025 27.239 45.386 27.3093 45.4563C27.3796 45.5266 27.4631 45.5823 27.5549 45.6204C27.6468 45.6584 27.7452 45.678 27.8446 45.678C27.944 45.678 28.0425 45.6584 28.1343 45.6204C28.2262 45.5823 28.3096 45.5266 28.3799 45.4563C28.4502 45.386 28.506 45.3025 28.544 45.2107C28.5821 45.1188 28.6016 45.0204 28.6016 44.921V24.4252C28.6016 24.2244 28.5219 24.0318 28.3799 23.8899C28.2379 23.7479 28.0454 23.6681 27.8446 23.6681C27.6438 23.6681 27.4513 23.7479 27.3093 23.8899C27.1673 24.0318 27.0876 24.2244 27.0876 24.4252V31.584C27.0786 31.887 26.952 32.1746 26.7345 32.3858C26.5169 32.597 26.2257 32.7151 25.9226 32.7151C25.6194 32.7151 25.3282 32.597 25.1107 32.3858C24.8932 32.1746 24.7665 31.887 24.7575 31.584V24.4191C24.7594 22.8003 25.4034 21.2484 26.5481 20.1039C27.6928 18.9593 29.2448 18.3156 30.8636 18.314H32.6063C34.2249 18.3159 35.7766 18.9597 36.9211 20.1042C38.0657 21.2487 38.7095 22.8005 38.7113 24.4191V31.5799C38.7113 31.8888 38.5887 32.185 38.3703 32.4033C38.1519 32.6217 37.8557 32.7444 37.5468 32.7444C37.238 32.7444 36.9418 32.6217 36.7234 32.4033C36.505 32.185 36.3823 31.8888 36.3823 31.5799V24.4252C36.3751 24.2291 36.2922 24.0434 36.1509 23.9072C36.0096 23.771 35.821 23.6949 35.6248 23.6949C35.4285 23.6949 35.2399 23.771 35.0987 23.9072C34.9574 24.0434 34.8744 24.2291 34.8672 24.4252V44.924C34.8744 45.1201 34.9574 45.3058 35.0987 45.442C35.2399 45.5782 35.4285 45.6543 35.6248 45.6543C35.821 45.6543 36.0096 45.5782 36.1509 45.442C36.2922 45.3058 36.3751 45.1201 36.3823 44.924V33.977C36.7519 34.1535 37.1566 34.2445 37.5661 34.2432C38.2714 34.2422 38.9474 33.9615 39.4461 33.4629C39.9447 32.9642 40.2254 32.2882 40.2264 31.583V24.4191C40.2241 22.8098 39.7133 21.2424 38.7668 19.9409C37.8204 18.6393 36.4869 17.6702 34.9567 17.1719C35.8485 16.4528 36.4734 15.4553 36.7313 14.3391C36.9892 13.2229 36.8652 12.0525 36.3793 11.015C37.0973 10.7301 37.8627 10.5835 38.6351 10.5831H40.3809C41.9997 10.585 43.5517 11.2289 44.6964 12.3736C45.8411 13.5183 46.4851 15.0704 46.4869 16.6892V23.85C46.478 24.1531 46.3513 24.4407 46.1338 24.6519C45.9163 24.863 45.6251 24.9811 45.3219 24.9811C45.0188 24.9811 44.7275 24.863 44.51 24.6519C44.2925 24.4407 44.1659 24.1531 44.1569 23.85V16.6912C44.1497 16.4951 44.0668 16.3094 43.9255 16.1732C43.7842 16.037 43.5956 15.9609 43.3994 15.9609C43.2031 15.9609 43.0145 16.037 42.8732 16.1732C42.732 16.3094 42.649 16.4951 42.6418 16.6912V37.1941C42.649 37.3903 42.732 37.5759 42.8732 37.7121C43.0145 37.8483 43.2031 37.9244 43.3994 37.9244C43.5956 37.9244 43.7842 37.8483 43.9255 37.7121C44.0668 37.5759 44.1497 37.3903 44.1569 37.1941V26.2441C44.5262 26.4203 44.9305 26.5113 45.3397 26.5103C46.0449 26.5092 46.721 26.2286 47.2196 25.73C47.7183 25.2313 47.9989 24.5553 48 23.85V16.6892C47.9979 15.08 47.4873 13.5127 46.541 12.2111C45.5948 10.9095 44.2613 9.94033 42.7312 9.442ZM8.49199 1.83813C9.20706 1.83813 9.90607 2.05018 10.5006 2.44745C11.0952 2.84472 11.5586 3.40938 11.8322 4.07002C12.1059 4.73066 12.1775 5.45761 12.038 6.15895C11.8985 6.86028 11.5541 7.5045 11.0485 8.01013C10.5429 8.51576 9.89866 8.8601 9.19733 8.99961C8.496 9.13911 7.76905 9.06751 7.10841 8.79386C6.44777 8.52022 5.88311 8.05681 5.48583 7.46225C5.08856 6.86769 4.87652 6.16868 4.87652 5.4536C4.87786 4.49513 5.25921 3.57631 5.93695 2.89856C6.61469 2.22082 7.53352 1.83948 8.49199 1.83813ZM24.0005 1.83813C24.7156 1.83813 25.4146 2.05018 26.0092 2.44745C26.6037 2.84472 27.0671 3.40938 27.3408 4.07002C27.6144 4.73066 27.686 5.45761 27.5465 6.15895C27.407 6.86028 27.0627 7.5045 26.557 8.01013C26.0514 8.51576 25.4072 8.8601 24.7059 8.99961C24.0045 9.13911 23.2776 9.06751 22.6169 8.79386C21.9563 8.52022 21.3916 8.05681 20.9944 7.46225C20.5971 6.86769 20.385 6.16868 20.385 5.4536C20.3861 4.49505 20.7674 3.57607 21.4452 2.89827C22.123 2.22047 23.042 1.83921 24.0005 1.83813ZM16.2666 9.56801C16.9819 9.56781 17.6812 9.77974 18.2761 10.177C18.8709 10.5743 19.3346 11.139 19.6085 11.7998C19.8824 12.4606 19.9541 13.1878 19.8147 13.8894C19.6753 14.591 19.3309 15.2355 18.8252 15.7414C18.3195 16.2473 17.6751 16.5918 16.9735 16.7314C16.2719 16.871 15.5447 16.7995 14.8839 16.5258C14.223 16.2521 13.6581 15.7886 13.2607 15.1938C12.8632 14.5991 12.6511 13.8998 12.6511 13.1845C12.6519 12.2258 13.033 11.3065 13.7109 10.6285C14.3887 9.95048 15.3078 9.56908 16.2666 9.56801ZM24.0005 21.1095C23.5515 20.1836 22.9204 19.3577 22.1451 18.6812C21.3697 18.0047 20.4659 17.4913 19.4878 17.1719C20.3826 16.452 21.0094 15.4522 21.2674 14.3332C21.5254 13.2141 21.3997 12.0408 20.9104 11.0018C21.6187 10.7252 22.3723 10.5832 23.1327 10.5831H24.8754C25.6354 10.5833 26.3888 10.7253 27.0967 11.0018C26.6074 12.0408 26.4817 13.2141 26.7397 14.3332C26.9977 15.4522 27.6245 16.452 28.5193 17.1719C27.5401 17.4906 26.6351 18.0036 25.8587 18.6802C25.0822 19.3568 24.4502 20.183 24.0005 21.1095ZM31.7344 16.804C31.0191 16.804 30.3199 16.5919 29.7251 16.1945C29.1304 15.797 28.6668 15.2322 28.3932 14.5713C28.1195 13.9104 28.0479 13.1832 28.1875 12.4816C28.3271 11.7801 28.6717 11.1357 29.1776 10.6299C29.6834 10.1242 30.3279 9.77985 31.0295 9.64042C31.7311 9.50099 32.4583 9.57276 33.1191 9.84663C33.7799 10.1205 34.3447 10.5842 34.7419 11.1791C35.1392 11.7739 35.3511 12.4732 35.3509 13.1886C35.3496 14.1472 34.9681 15.0662 34.2901 15.744C33.6122 16.4217 32.6931 16.803 31.7344 16.804ZM39.509 1.83813C40.2239 1.83894 40.9225 2.05166 41.5166 2.44943C42.1106 2.84719 42.5734 3.41213 42.8464 4.07284C43.1194 4.73355 43.1904 5.46037 43.0505 6.16144C42.9105 6.8625 42.5658 7.50634 42.0601 8.01156C41.5543 8.51679 40.91 8.86073 40.2088 8.9999C39.5076 9.13908 38.7808 9.06724 38.1204 8.79347C37.46 8.51971 36.8956 8.0563 36.4985 7.46183C36.1014 6.86736 35.8895 6.1685 35.8895 5.4536C35.8906 4.49435 36.2724 3.57475 36.9511 2.89683C37.6297 2.21892 38.5498 1.83813 39.509 1.83813Z" fill="#5A7BB6"/>
</svg>